<svg width="16" height="16" viewBox="0 0 16 16" fill="none" xmlns="http://www.w3.org/2000/svg">
<path d="M10.6667 3.86731V2.77944C10.6667 2.68515 10.5588 2.63308 10.486 2.69078L4.17229 7.64601C4.11864 7.68793 4.07524 7.74161 4.04538 7.80295C4.01552 7.86429 4 7.93167 4 7.99996C4 8.06824 4.01552 8.13563 4.04538 8.19697C4.07524 8.25831 4.11864 8.31198 4.17229 8.3539L10.486 13.3091C10.5602 13.3668 10.6667 13.3148 10.6667 13.2205V12.1326C10.6667 12.0636 10.6345 11.9975 10.5812 11.9553L5.53923 8.00066L10.5812 4.04464C10.6345 4.00242 10.6667 3.93627 10.6667 3.86731Z" fill="#F06864"/>
</svg>
