<svg width="196" height="118" viewBox="0 0 196 118" fill="none" xmlns="http://www.w3.org/2000/svg">
<g clip-path="url(#clip0_6466_64467)">
<path d="M97.4941 118C151.339 118 194.988 116.242 194.988 114.073C194.988 111.903 151.339 110.145 97.4941 110.145C43.6496 110.145 0 111.903 0 114.073C0 116.242 43.6496 118 97.4941 118Z" fill="#E6E6E6"/>
<path d="M100.799 114.53C126.327 114.53 147.022 93.9658 147.022 68.5989C147.022 43.2321 126.327 22.6682 100.799 22.6682C75.2716 22.6682 54.5771 43.2321 54.5771 68.5989C54.5771 93.9658 75.2716 114.53 100.799 114.53Z" fill="#3F3D56"/>
<path d="M100.799 110.727C124.214 110.727 143.195 91.8659 143.195 68.599C143.195 45.332 124.214 26.4705 100.799 26.4705C77.3846 26.4705 58.4033 45.332 58.4033 68.599C58.4033 91.8659 77.3846 110.727 100.799 110.727Z" fill="white"/>
<path d="M100.646 74.3783C103.774 74.3783 106.309 71.8589 106.309 68.751C106.309 65.6432 103.774 63.1238 100.646 63.1238C97.5188 63.1238 94.9834 65.6432 94.9834 68.751C94.9834 71.8589 97.5188 74.3783 100.646 74.3783Z" fill="#F06864"/>
<path d="M101.871 28.5996H99.4219V33.1623H101.871V28.5996Z" fill="#3F3D56"/>
<path d="M101.871 104.34H99.4219V108.902H101.871V104.34Z" fill="#3F3D56"/>
<path d="M64.832 69.9676V67.5342H60.2404V69.9676H64.832Z" fill="#3F3D56"/>
<path d="M99.0137 71.1938L101.106 66.4387L127.33 80.8705L99.0137 71.1938Z" fill="#F06864"/>
<path d="M106.768 11.5657H94.8301V25.2536H106.768V11.5657Z" fill="#3F3D56"/>
<path d="M100.799 15.3678C108.407 15.3678 114.574 13.6655 114.574 11.5656C114.574 9.46574 108.407 7.76343 100.799 7.76343C93.1916 7.76343 87.0244 9.46574 87.0244 11.5656C87.0244 13.6655 93.1916 15.3678 100.799 15.3678Z" fill="#3F3D56"/>
</g>
<defs>
<clipPath id="clip0_6466_64467">
<rect width="196" height="118" fill="white"/>
</clipPath>
</defs>
</svg>
