<svg width="16" height="16" viewBox="0 0 16 16" fill="none" xmlns="http://www.w3.org/2000/svg">
<path fill-rule="evenodd" clip-rule="evenodd" d="M8.42822 1.51076C8.19154 1.27408 7.80781 1.27408 7.57113 1.51076L5.75294 3.32894C5.51626 3.56563 5.51626 3.94936 5.75294 4.18604C5.98962 4.42273 6.37336 4.42273 6.61004 4.18604L7.39361 3.40247V7.39386H3.40223L4.1858 6.61029C4.42248 6.37361 4.42248 5.98987 4.1858 5.75319C3.94912 5.51651 3.56538 5.51651 3.3287 5.75319L1.51052 7.57137C1.27384 7.80805 1.27384 8.19179 1.51052 8.42847L3.3287 10.2466C3.56538 10.4833 3.94912 10.4833 4.1858 10.2466C4.42248 10.01 4.42248 9.62623 4.1858 9.38955L3.40223 8.60598H7.39361V12.5974L6.61004 11.8138C6.37336 11.5771 5.98962 11.5771 5.75294 11.8138C5.51626 12.0505 5.51626 12.4342 5.75294 12.6709L7.57113 14.4891C7.80781 14.7258 8.19154 14.7258 8.42822 14.4891L10.2464 12.6709C10.4831 12.4342 10.4831 12.0505 10.2464 11.8138C10.0097 11.5771 9.62599 11.5771 9.38931 11.8138L8.60574 12.5974V8.60598H12.5971L11.8135 9.38955C11.5769 9.62623 11.5769 10.01 11.8135 10.2466C12.0502 10.4833 12.434 10.4833 12.6706 10.2466L14.4888 8.42847C14.7255 8.19179 14.7255 7.80805 14.4888 7.57137L12.6706 5.75319C12.434 5.51651 12.0502 5.51651 11.8135 5.75319C11.5769 5.98987 11.5769 6.37361 11.8135 6.61029L12.5971 7.39386H8.60574V3.40247L9.38931 4.18604C9.62599 4.42273 10.0097 4.42273 10.2464 4.18604C10.4831 3.94936 10.4831 3.56563 10.2464 3.32894L8.42822 1.51076Z" fill="white"/>
</svg>
