<svg xmlns="http://www.w3.org/2000/svg" width="24" height="24" viewBox="0 0 24 24" fill="none">
  <path d="M19.9682 17.0687L12.5454 6.94163C12.2759 6.57496 11.7244 6.57496 11.457 6.94163L4.03213 17.0687C4.01386 17.0936 4.00291 17.123 4.00051 17.1537C3.9981 17.1844 4.00432 17.2152 4.01849 17.2426C4.03266 17.27 4.05422 17.2929 4.08078 17.309C4.10734 17.325 4.13786 17.3334 4.16896 17.3333H5.74783C5.85519 17.3333 5.95624 17.2812 6.0194 17.1958L12.0001 9.03746L17.9809 17.1958C18.044 17.2812 18.1451 17.3333 18.2525 17.3333H19.8313C19.9682 17.3333 20.0482 17.1791 19.9682 17.0687Z" fill="#4A4A68"/>
</svg>
