<svg width="18" height="18" viewBox="0 0 18 18" fill="none" xmlns="http://www.w3.org/2000/svg">
<path d="M7.23862 12.2515C7.30432 12.3432 7.39093 12.4179 7.49128 12.4695C7.59163 12.521 7.70281 12.5479 7.81562 12.5479C7.92844 12.5479 8.03962 12.521 8.13997 12.4695C8.24032 12.4179 8.32693 12.3432 8.39263 12.2515L13.0935 5.73364C13.1783 5.61534 13.0935 5.45016 12.9484 5.45016H11.9016C11.6739 5.45016 11.4574 5.55953 11.3234 5.74703L7.81674 10.6131L6.22745 8.40775C6.09353 8.22248 5.87924 8.11087 5.64933 8.11087H4.60245C4.45737 8.11087 4.37254 8.27605 4.45737 8.39435L7.23862 12.2515Z" fill="#0E7900"/>
<path d="M17.2146 0.0693359H0.786063C0.390974 0.0693359 0.0717773 0.388532 0.0717773 0.783622V17.2122C0.0717773 17.6073 0.390974 17.9265 0.786063 17.9265H17.2146C17.6097 17.9265 17.9289 17.6073 17.9289 17.2122V0.783622C17.9289 0.388532 17.6097 0.0693359 17.2146 0.0693359ZM16.3218 16.3193H1.67892V1.67648H16.3218V16.3193Z" fill="#0E7900"/>
</svg>
