<svg width="32" height="32" viewBox="0 0 32 32" fill="none" xmlns="http://www.w3.org/2000/svg">
<rect width="32" height="32" rx="16" fill="white"/>
<g clip-path="url(#clip0_11357_13823)">
<path d="M14.9291 18.6429C14.9291 18.927 15.042 19.1995 15.243 19.4005C15.4439 19.6014 15.7164 19.7143 16.0006 19.7143C16.2847 19.7143 16.5572 19.6014 16.7582 19.4005C16.9591 19.1995 17.072 18.927 17.072 18.6429C17.072 18.3587 16.9591 18.0862 16.7582 17.8852C16.5572 17.6843 16.2847 17.5714 16.0006 17.5714C15.7164 17.5714 15.4439 17.6843 15.243 17.8852C15.042 18.0862 14.9291 18.3587 14.9291 18.6429ZM15.2863 11.8571V15.9643C15.2863 16.0625 15.3666 16.1429 15.4649 16.1429H16.5363C16.6345 16.1429 16.7149 16.0625 16.7149 15.9643V11.8571C16.7149 11.7589 16.6345 11.6786 16.5363 11.6786H15.4649C15.3666 11.6786 15.2863 11.7589 15.2863 11.8571ZM25.9046 21.6786L16.6189 5.60714C16.4805 5.3683 16.2416 5.25 16.0006 5.25C15.7595 5.25 15.5184 5.3683 15.3823 5.60714L6.09655 21.6786C5.82199 22.1563 6.16574 22.75 6.71485 22.75H25.2863C25.8354 22.75 26.1791 22.1563 25.9046 21.6786ZM8.41574 21.0558L16.0006 7.92634L23.5854 21.0558H8.41574Z" fill="#A20E00"/>
</g>
<defs>
<clipPath id="clip0_11357_13823">
<rect width="20" height="20" fill="white" transform="translate(6 4)"/>
</clipPath>
</defs>
</svg>
