<svg width="20" height="20" viewBox="0 0 20 20" fill="none" xmlns="http://www.w3.org/2000/svg">
<g id="Icon/AntDesign" clip-path="url(#clip0_11206_79231)">
<path id="Vector" d="M8.92914 14.6429C8.92914 14.927 9.04202 15.1995 9.24295 15.4005C9.44388 15.6014 9.7164 15.7143 10.0006 15.7143C10.2847 15.7143 10.5572 15.6014 10.7582 15.4005C10.9591 15.1995 11.072 14.927 11.072 14.6429C11.072 14.3587 10.9591 14.0862 10.7582 13.8852C10.5572 13.6843 10.2847 13.5714 10.0006 13.5714C9.7164 13.5714 9.44388 13.6843 9.24295 13.8852C9.04202 14.0862 8.92914 14.3587 8.92914 14.6429ZM9.28628 7.85714V11.9643C9.28628 12.0625 9.36664 12.1429 9.46485 12.1429H10.5363C10.6345 12.1429 10.7149 12.0625 10.7149 11.9643V7.85714C10.7149 7.75893 10.6345 7.67857 10.5363 7.67857H9.46485C9.36664 7.67857 9.28628 7.75893 9.28628 7.85714ZM19.9046 17.6786L10.6189 1.60714C10.4805 1.3683 10.2416 1.25 10.0006 1.25C9.75949 1.25 9.51842 1.3683 9.38226 1.60714L0.0965478 17.6786C-0.178006 18.1563 0.165744 18.75 0.714851 18.75H19.2863C19.8354 18.75 20.1791 18.1563 19.9046 17.6786ZM2.41574 17.0558L10.0006 3.92634L17.5854 17.0558H2.41574Z" fill="#0C57A9"/>
</g>
<defs>
<clipPath id="clip0_11206_79231">
<rect width="20" height="20" fill="white"/>
</clipPath>
</defs>
</svg>
